<?xml version="1.0" encoding="UTF-8" standalone="no"?>
<svg
   xmlns:dc="http://purl.org/dc/elements/1.1/"
   xmlns:cc="http://creativecommons.org/ns#"
   xmlns:rdf="http://www.w3.org/1999/02/22-rdf-syntax-ns#"
   xmlns:svg="http://www.w3.org/2000/svg"
   xmlns="http://www.w3.org/2000/svg"
   version="1.1"
   id="svg2"
   viewBox="0 0 113.38583 113.38582"
   height="32mm"
   width="32mm">
  <title
     id="title4421">broom - line art</title>
  <defs
     id="defs4" />
  <metadata
     id="metadata7">
    <rdf:RDF>
      <cc:Work
         rdf:about="">
        <dc:format>image/svg+xml</dc:format>
        <dc:type
           rdf:resource="http://purl.org/dc/dcmitype/StillImage" />
        <dc:title>broom - line art</dc:title>
        <cc:license
           rdf:resource="http://creativecommons.org/publicdomain/zero/1.0/" />
        <dc:description>Brooms, household, tool, cleaning, line art, outline, Besen, zeichnung, haushalt, werkzeug, reinigung,</dc:description>
        <dc:contributor>
          <cc:Agent>
            <dc:title>line art broom</dc:title>
          </cc:Agent>
        </dc:contributor>
        <dc:date>2015-02-06</dc:date>
        <dc:creator>
          <cc:Agent>
            <dc:title>Frank Tremmel</dc:title>
          </cc:Agent>
        </dc:creator>
      </cc:Work>
      <cc:License
         rdf:about="http://creativecommons.org/publicdomain/zero/1.0/">
        <cc:permits
           rdf:resource="http://creativecommons.org/ns#Reproduction" />
        <cc:permits
           rdf:resource="http://creativecommons.org/ns#Distribution" />
        <cc:permits
           rdf:resource="http://creativecommons.org/ns#DerivativeWorks" />
      </cc:License>
    </rdf:RDF>
  </metadata>
  <g
     style="display:inline"
     transform="translate(-98.92002,-116.49591)"
     id="layer1">
    <path
       id="path4392"
       d="m 127.15183,158.51762 c -5.22591,4.18935 -11.33212,6.17796 -17.49211,8.03208 l 3.7483,2.14188 0.1785,2.85586 2.14188,-0.17849 2.14189,1.07094 -0.35697,1.60643 2.49888,1.60642 c 1.24942,0.87062 2.7666,0.41037 4.01603,0.35696 -1.20545,3.77288 -0.0333,3.12997 0.26773,4.1053 1.76419,1.01949 3.80048,0.30392 5.80094,-0.80319 -0.49122,2.66011 -0.25099,4.14988 0.44625,4.90848 2.10069,0.4787 3.36843,0.29107 4.28377,-0.17849 -0.12977,1.78413 0.0838,3.32294 1.60642,3.9268 1.28136,0.67841 1.27152,0.49998 1.87415,0.35697 l 3.48058,-3.12357 c -0.59447,1.45275 1.22739,-0.3738 -2.32037,5.08697 0.49326,0.28597 0.18638,1.10535 1.96337,0.53548 l 4.81927,-3.92679 c -1.20584,2.2246 -1.96453,4.76808 -1.51718,7.22886 1.54693,-1.84235 3.09385,-3.77218 4.64077,-4.46226 -0.9222,1.74465 -1.8444,4.33606 -2.76661,6.51491 0.38137,0.49646 2.25322,-1.39189 3.74831,-2.67736 -0.28569,2.29665 -0.45814,4.52857 0.89245,5.8902 0.99322,-0.0777 1.00025,-1.14164 1.07095,-2.14188 0.27148,1.4056 0.75689,3.05529 1.69565,4.01602 0.92909,-5.51489 3.48059,-10.08473 5.44397,-15.08246 -1.67092,5.47497 -3.90653,11.09112 -2.85583,15.88568 l 1.24942,-1.07094 c -1.40218,4.19122 0.68829,3.50438 2.14189,2.94511 1.80784,1.79659 3.4258,2.2642 4.99774,2.40961 l 1.24944,-3.92679 c 0.11904,3.33182 0.95195,5.11673 2.49888,5.35472 0.34389,1.96212 0.84667,2.4944 1.42791,2.32039 0.92174,-0.12977 0.96776,-2.0164 1.24945,-3.21285 1.51808,3.81326 2.29589,3.18488 3.39132,4.46227 0.51037,0.68607 0.8827,2.20047 1.60642,1.60643 l 1.51717,-2.58813 c 0.9052,2.03561 1.98152,1.84703 3.1236,0.80321 -0.99101,-2.02787 -2.63134,-5.66581 -3.19548,-8.10393 -0.74612,-3.22466 -1.1932,-5.37595 -0.90982,-8.8527 z"
       style="fill:#ffffff;fill-rule:evenodd;stroke:#ff0000;stroke-width:0.50087315;stroke-linecap:butt;stroke-linejoin:miter;stroke-miterlimit:4;stroke-dasharray:none;stroke-opacity:1" />
    <path
       id="path4417"
       d="m 176.95076,194.39427 c 4.25404,-0.25252 8.50807,-1.59279 12.76211,-3.74831 2.86799,4.74101 5.39727,9.69371 10.08471,13.29756 l -2.14189,1.07096 -2.05263,-0.44623 c -0.0417,1.24347 0.68247,3.18893 -2.05265,1.96339 l -2.23113,-0.71396 -0.98171,2.58812 -2.49887,0.35698 c 0.47102,1.12549 0.0113,1.32072 -0.44622,1.51717 -1.06656,0.7625 -1.7235,0.50091 -2.32038,0.0892 -0.39107,1.18561 -2.0398,1.11354 -3.83755,0.89247 -1.30597,-2.44032 -2.86659,-5.76152 -3.63468,-8.88516 -0.60608,-2.46485 -0.55031,-4.50363 -0.64911,-7.98219 z"
       style="fill:#ffffff;fill-rule:evenodd;stroke:#00ff00;stroke-width:0.50087315;stroke-linecap:butt;stroke-linejoin:miter;stroke-miterlimit:4;stroke-dasharray:none;stroke-opacity:1" />
    <path
       id="path4153-2-20-6"
       d="m 128.1137,157.59034 c -0.15878,0.006 -0.31174,0.0613 -0.43664,0.15994 -5.70512,4.53742 -12.21055,6.78599 -17.74872,7.96559 -0.65282,0.13895 -0.81082,1.00187 -0.2499,1.36482 l 3.1801,2.06241 0.22244,2.53939 c 0.0414,0.47338 0.50494,0.78945 0.95844,0.65347 0.43643,-0.13019 0.87642,-0.28908 1.31816,-0.46048 0.14867,0.29999 0.35429,0.59318 0.68655,0.7803 0.27123,0.15277 0.69191,0.14136 1.0463,0.19301 -0.0963,0.39269 -0.30204,0.76285 -0.17577,1.18837 0.22298,0.75129 0.92668,1.30191 1.91411,1.5909 0.10621,0.0307 0.2178,0.0372 0.32681,0.0193 0.52068,0.65396 1.28756,1.04112 2.1036,1.17734 0.5775,0.0964 1.21757,-0.0702 1.83995,-0.14613 -0.13684,0.31765 -0.28907,0.55404 -0.37624,0.92643 -0.19502,0.83319 -0.12835,1.86838 0.56023,2.74618 0.0379,0.0473 0.0811,0.0899 0.12906,0.1268 0.19676,0.15377 0.42266,0.23011 0.65359,0.27571 0.40334,0.47956 1.04043,0.66401 1.66146,0.67277 0.73464,0.01 1.55586,-0.17004 2.42489,-0.49355 0.40525,-0.15084 0.81806,-0.43991 1.23304,-0.65345 -0.39041,1.50956 -0.0451,3.14659 0.59319,4.46945 0.14626,0.30245 0.47503,0.47034 0.80463,0.41082 l 0.003,0 c 1.23679,0.27047 1.85508,0.37091 2.46609,0.28675 0.3459,-0.0477 0.76666,-0.20038 1.11493,-0.31433 -0.0127,0.54132 -0.18493,1.05372 0.008,1.60472 0.3472,0.99117 1.81576,2.82115 2.21894,1.86766 0.20384,0.83798 0.719,0.73996 0.97493,0.84815 0.46815,-0.019 0.81114,-0.23901 1.20283,-0.53767 0.64469,-0.49157 1.62655,-1.56292 2.75719,-2.80683 -0.87676,2.07305 -1.49482,2.22678 -2.76611,4.1938 -0.23431,0.36671 0.29021,0.85602 0.67133,1.06427 1.04993,0.57229 1.96137,0.0892 3.07263,-0.51278 0.6249,-0.33848 2.16194,-2.18053 2.79909,-2.73302 -0.0292,0.072 -1.06972,1.87548 -1.09729,1.94753 -0.64587,1.68967 -0.79828,2.86497 -0.11717,4.44158 0.22123,0.51344 0.90413,0.61203 1.26049,0.18196 0.35164,-0.42428 2.11893,-2.95434 2.83182,-3.39311 -0.80922,0.94916 -2.17387,3.56258 -2.29631,4.32507 -0.081,0.38744 0.11831,0.78685 0.16733,1.0615 0.22385,0.5338 0.68088,0.36724 1.06825,0.51004 0.33799,-0.0658 0.53015,-0.21744 0.7305,-0.37498 0.59855,-0.51641 1.19585,-1.13338 1.69166,-1.61298 -0.0528,0.74052 -0.31946,1.53826 -0.16476,2.18371 0.3049,1.27221 0.97475,2.36165 2.07612,2.75171 0.26211,0.0933 0.55409,0.0328 0.75794,-0.15717 0.0817,0.26681 0.15351,0.56648 0.24993,0.78583 0.17325,0.39411 0.3544,0.74509 0.76343,0.99258 0.20453,0.12384 0.48679,0.19482 0.74972,0.15718 0.53141,0.0302 0.64725,-0.47682 0.89521,-0.6783 0.2264,-0.81404 1.49251,-6.99367 2.06531,-7.88379 -0.35052,0.96115 -1.34265,6.92558 -1.26891,7.57499 0.1005,0.88477 0.1046,2.74992 1.1854,1.59569 -0.1018,0.26262 -0.12128,1.15133 -0.0978,1.37108 0.28232,0.47188 0.62709,0.83152 1.07652,1.00088 0.4494,0.16935 0.92535,0.0891 1.27972,-0.0689 0.29776,-0.13274 0.45336,-0.33106 0.6838,-0.51561 0.22263,0.58554 0.53916,1.08568 0.98588,1.39516 0.46121,0.31951 0.96121,0.49474 1.46374,0.6314 0.008,0.0803 0.008,0.16265 0.0192,0.24265 0.0275,0.21418 0.14562,0.40607 0.32408,0.52663 1.60151,1.08001 3.09311,0.70453 3.51647,-2.98796 -0.0531,1.54456 0.0609,2.61566 0.42981,3.06791 0.42359,0.51937 1.03776,0.92391 1.82623,1.19112 0.0695,0.59478 0.15557,1.17707 0.27462,1.73153 0.0299,0.14095 0.0993,0.27004 0.20048,0.37224 0.21332,0.21456 0.44387,0.39056 0.7497,0.477 0.30584,0.0864 0.68239,0.0272 0.93371,-0.12694 0.50261,-0.30786 0.64926,-0.73713 0.81289,-1.15252 0.14898,-0.3783 0.14728,-1.25419 0.27373,-1.6197 0.34085,0.54253 0.63211,1.86263 1.10209,2.25937 0.39584,0.33413 0.82693,0.604 1.27426,0.81063 0.14946,0.67807 0.55957,1.1341 0.87329,1.61572 0.47849,0.2687 0.95693,1.03193 1.43075,0.95477 0.47384,-0.0771 0.84712,-1.00764 1.07652,-1.32147 0.19276,-0.26373 0.22912,-0.51345 0.33779,-0.78858 0.0493,0.0405 0.10374,0.0613 0.15378,0.0992 0.0802,0.17311 0.15078,0.35462 0.23891,0.5211 0.0673,0.12639 0.16934,0.23057 0.29386,0.30055 0.4785,0.26869 0.95692,0.40805 1.43077,0.33085 0.47382,-0.0771 0.84711,-0.38375 1.07651,-0.69758 0.27566,0.0964 0.48907,-0.0807 0.62386,-0.10287 0.0478,-0.0156 0.31558,-0.21412 0.35932,-0.23897 0.28683,0.14708 0.61835,0.18807 0.898,0.2731 0.90303,0.0763 1.73314,-0.20177 2.49629,-0.44665 0.25545,-0.0824 0.44725,-0.29612 0.50255,-0.55974 0.81104,0.0145 1.56478,-0.22626 2.26013,-0.44942 0.44284,-0.14206 0.65042,-0.65124 0.43391,-1.06428 0.83753,0.0307 1.61371,-0.21997 2.32878,-0.44943 0.45005,-0.1463 0.65321,-0.67028 0.42016,-1.08359 0.055,-0.0702 0.12835,-0.13514 0.17026,-0.20678 0.16442,-0.28104 0.17254,-0.53232 0.25266,-0.81614 0.52049,0.34526 1.06962,0.56674 1.61202,0.55695 0.15295,-0.003 0.29788,-0.029 0.44489,-0.0496 l 0.0166,0.0166 c 0.106,0.0969 0.23764,0.16093 0.37899,0.18475 0.54077,0.0907 1.03814,0.0595 1.45822,-0.17371 0.42009,-0.23324 0.66677,-0.64978 0.77717,-1.02292 0.0925,-0.31307 0.0424,-0.55937 0.0523,-0.85474 0.58776,0.20982 1.17293,0.29177 1.69714,0.15165 0.87573,-0.23409 1.56367,-0.77918 2.19971,-1.26834 0.3886,-0.29949 0.38996,-0.88705 0.003,-1.18835 -4.41111,-3.42559 -6.97766,-7.65326 -10.20764,-14.34028 -0.0842,-0.17354 -0.23171,-0.30783 -0.41193,-0.37499 -3.58114,-1.91168 -12.28373,0.13189 -13.35202,3.98701 -8.16685,-6.83438 -17.51021,-12.98623 -25.50115,-18.61127 l 0.008,-0.014 -5.09422,-3.75811 -0.3268,0.12412 c -0.0113,-0.0127 -0.0234,-0.0243 -0.0357,-0.0359 l -2.40843,-2.14512 c -0.1323,-0.11717 -0.3015,-0.18356 -0.47781,-0.1875 l -0.0113,0 -3.04005,-2.12306 c -0.05,-0.15624 -0.14907,-0.29182 -0.28285,-0.386 l -2.90824,-2.04308 0,-0.003 c -0.0468,-0.0605 -0.10223,-0.11351 -0.16477,-0.15717 l -4.79213,-3.40792 c -0.0322,-0.0229 -0.0662,-0.0433 -0.10159,-0.0607 -0.0441,-0.0681 -0.0987,-0.12865 -0.16203,-0.17922 l -2.40841,-1.89422 c -0.13939,-0.1087 -0.31251,-0.16433 -0.48881,-0.15716 z m -0.5825,1.49814 2.30927,1.82551 c -1.59856,1.39133 -3.95315,2.59742 -5.80576,4.04998 -1.88842,1.26856 -6.32129,2.70043 -8.27043,3.4262 -0.29189,-0.40172 4.69409,-2.53133 6.17313,-3.62624 0.65844,-0.38048 1.1961,-1.21186 0.43643,-1.22242 -0.14254,-9.4e-4 -0.40371,0.1131 -0.40371,0.1131 -2.53834,1.52619 -4.55522,2.87844 -5.25318,3.20829 -0.69797,0.32985 -0.96506,0.87281 -2.92432,1.33896 l -0.89321,-0.3983 -2.13319,-1.20073 c 5.18069,-1.25165 11.46183,-3.44096 16.76497,-7.51433 z m 3.31497,2.33165 3.93649,2.85633 c -1.43131,1.21324 -2.88318,2.21004 -3.95994,3.32065 -3.65692,2.91089 -5.83484,5.41572 -11.47772,6.8379 -0.42421,-0.16925 -0.96002,-0.60566 -0.99954,-0.73886 -0.0348,-0.11719 0.0127,-0.45731 0.10984,-0.75913 2.83093,-0.24517 4.6914,-1.69946 8.09498,-4.44509 0.56872,-0.44362 3.12997,-2.1609 2.40996,-2.59053 -0.5684,-0.0853 -2.9059,1.93678 -3.03572,2.04536 -3.52476,2.84338 -5.32964,3.41849 -7.95255,3.53446 -0.0544,-4.3e-4 -0.10885,0.006 -0.16204,0.0166 -0.58967,-9.4e-4 -0.92439,-0.0891 -1.0353,-0.15165 -0.0459,-0.0258 -0.0627,-0.0401 -0.0796,-0.0578 3.17486,-1.48555 6.39734,-3.82633 9.33709,-6.22582 1.52017,-1.0709 3.09057,-2.27504 4.8141,-3.64227 z m 4.53953,3.3629 1.66963,1.07345 0.2942,0.32574 c -2.13495,1.88184 -4.74688,4.0458 -7.02196,5.79613 -2.21218,1.70194 -4.18927,2.97878 -5.90801,3.43227 -0.0502,0.003 -0.72114,0.14342 -1.25795,0.15575 -0.93989,0.25411 -1.10353,0.20445 -1.79118,0.0897 -0.23333,-0.039 -0.90086,-0.47742 -1.07452,-0.55138 3.52156,-1.0847 7.12155,-3.25412 8.69106,-4.33203 0.79818,-0.72428 1.55438,-1.48835 2.3233,-2.26642 1.55102,-1.23659 2.73706,-2.55932 4.07543,-3.72314 z m 3.28989,2.40243 2.76899,1.82111 c -0.28038,0.25303 -0.64569,0.83315 -0.92361,1.09498 -3.00402,2.7078 -5.7702,5.36263 -7.58769,8.34991 -0.78693,1.26228 -1.5948,2.98223 -2.22805,4.35769 -0.43342,-0.84883 -0.31923,-1.76408 -0.19448,-2.36243 0.0865,-0.4145 0.47804,-1.27909 0.9562,-1.80502 0.23906,-0.26295 0.65851,-0.81848 0.85859,-1.05638 0.64664,-0.76894 0.99977,-1.27226 1.31886,-1.80154 0.47467,-0.78731 1.26676,-1.50126 0.93671,-1.86756 -0.25174,-0.18989 -1.66826,1.5064 -2.20635,2.21925 -0.98036,1.29876 -2.59461,2.85395 -3.9641,3.45234 -0.15506,0.0677 -0.62655,-0.11733 -0.77755,-0.0609 -0.0604,0.0226 -1.60317,0.77032 -1.84046,0.38959 -0.0666,-0.58738 1.3554,-1.05696 2.21854,-1.66547 1.12197,-0.92602 1.7718,-1.37434 3.26434,-2.75742 2.1064,-1.95191 3.97421,-4.61346 6.12582,-7.06727 0.45694,-0.47842 0.86399,-0.85595 1.27424,-1.24075 z m -23.82881,1.78945 c -0.0731,1.12389 4.82128,-0.6893 4.91537,-0.64672 0.0995,0.19789 -3.95591,2.08198 -3.93517,2.34642 -0.18219,0.0736 -1.61173,0.30484 -1.79204,0.37083 l 0.31754,-1.95473 c 0.18958,-0.0443 0.33024,-0.0773 0.4943,-0.11578 z m 27.61581,0.7858 1.30996,1.16904 c -0.27959,0.25462 -0.53916,0.52341 -0.80738,0.78581 -3.13514,2.34809 -4.5439,6.09105 -5.63669,9.09428 -0.24554,0.6747 -0.36415,1.78385 -0.40592,2.49887 -0.22477,1.13232 -0.23206,2.80672 -0.32502,4.11318 -0.13979,-0.20054 -0.76902,-0.57048 -0.81371,-1.18129 -0.23819,-0.68 -0.19834,-1.47229 -0.0658,-1.75911 0.26644,-0.5782 -0.26073,-1.20567 -0.87329,-1.03948 -1.05267,0.28461 -1.47927,0.47473 -1.79604,0.51837 -0.15682,0.0216 -0.67851,-0.0943 -0.97214,-0.13232 1.55912,-4.21637 5.2393,-9.81504 10.38613,-14.06732 z m 2.0416,1.59062 c -0.28398,0.37761 1.5637,1.2464 1.54845,1.26935 -2.34717,3.58464 -4.91246,5.56764 -6.99334,6.74776 0.97902,-1.98415 2.26768,-5.13948 3.787,-6.6684 0.61651,-0.51565 0.92125,-1.01643 1.65789,-1.34871 z m -7.72101,-3.81958 c -0.20524,1.01862 -6.00582,7.16888 -6.77282,8.01704 -1.41685,1.56675 -2.9344,2.05502 -3.9975,2.89439 -0.53155,0.41968 -1.00031,0.69643 -1.3072,0.80511 -0.2241,0.0793 -0.23491,0.0486 -0.27463,0.033 -0.29455,-0.44355 -0.37005,-0.83302 -0.25265,-1.3345 0.10545,-0.4507 0.34558,-0.94539 0.5822,-1.44205 2.0492,-0.58588 3.20032,-1.85764 5.41074,-3.55821 0.32501,-0.25007 6.15352,-5.51 6.61186,-5.41488 z m 9.94428,5.20951 2.18046,1.60744 c -0.0879,0.18765 0.21973,0.58748 0.13035,0.77153 l -3.07802,4.95227 c -0.25115,0.40407 -2.47562,4.52047 -2.76859,4.88756 -0.2171,0.27203 -1.16507,2.68515 -1.31663,2.83387 -0.0912,0.0894 0.46078,-2.25166 0.44246,-2.82543 0.16986,-1.02524 1.08758,-2.68923 0.77687,-3.17943 -0.68993,0.41523 -1.29186,2.56598 -2.02133,3.30707 -1.62665,1.65258 -2.19362,2.2259 -2.8863,2.78306 -1.16348,0.19633 -0.44762,-3.46984 -0.39857,-4.16931 1.5856,-0.41449 3.34099,-0.99855 4.29513,-1.89962 1.05874,-1.00825 1.437,-1.52118 2.77904,-2.82418 0.48999,-0.47574 1.9536,-2.1431 1.53872,-2.47936 -0.19443,-0.006 -1.00604,0.81787 -1.9476,1.75548 -1.131,1.12627 -2.39743,2.26569 -3.44164,3.0383 -0.67263,0.49767 -1.23984,0.61563 -2.73987,1.02723 0.15963,-0.66528 0.34388,-1.29438 0.55196,-1.89423 0.20401,0.0623 0.42484,0.0343 0.60691,-0.0771 2.88767,-1.76322 4.47589,-3.29891 7.24998,-7.53549 0.0173,-0.0258 0.0328,-0.0523 0.0468,-0.0799 z m 3.30642,2.5642 1.13969,0.7996 -0.003,0.003 c -2.40101,2.80217 -5.44921,8.25999 -7.69042,10.3923 2.07659,-3.71049 4.61651,-8.2127 6.55356,-11.19472 z m 2.35898,1.65709 3.38831,2.44515 c -0.81324,1.84945 -2.05759,3.27352 -3.16585,4.80083 -0.58848,0.7567 -1.70495,2.27125 -2.3012,3.03226 -1.88223,2.23368 -3.34566,3.44071 -5.05313,5.34418 -0.0301,-0.78716 0.0745,-1.6257 0.43114,-2.55871 0.56611,-1.48095 1.55821,-3.0676 2.65011,-4.54666 1.09185,-1.47905 2.27863,-2.85265 3.22951,-3.95386 0.88583,-1.28958 0.55824,-1.62821 -0.52242,-0.88906 -2.58709,3.08189 -3.97875,4.06045 -6.2168,6.37299 -0.85167,0.88005 -2.41586,2.63116 -2.78318,1.97835 3.08269,-3.02894 6.55579,-7.5868 10.25284,-11.90157 0.0343,-0.0382 0.0646,-0.0798 0.0905,-0.12411 z m 6.1651,4.41284 c -0.73042,1.34997 -1.78986,3.42406 -2.47516,4.97983 -1.88847,4.46962 -3.85218,8.25543 -4.49694,12.24116 -0.15056,-0.25804 -0.66266,-1.17953 -0.75284,-1.55576 -0.22899,-0.95549 -0.19046,-2.20117 0.27187,-3.41619 0.25597,-0.66493 -0.46905,-1.27987 -1.07925,-0.91539 -0.88937,0.52595 -1.63067,1.46329 -2.29033,2.1782 1.84367,-4.04056 4.07226,-7.46382 6.18876,-10.76253 0.81109,-1.12567 1.80315,-3.07472 2.44636,-4.26245 0.82954,0.34621 1.48632,0.96418 2.18753,1.51313 z m 5.80285,4.26963 c -0.60199,1.43556 -1.52079,3.09859 -2.49353,4.86374 -0.67311,1.14526 -1.35867,2.29366 -1.99925,3.47686 -1.13654,2.09932 -2.27395,4.77334 -2.84914,6.90394 -0.30521,-1.53077 0.0639,-2.96586 0.20283,-4.48615 0.39982,-4.37672 1.13702,-5.56727 2.13222,-8.76821 0.11945,-0.38406 1.1381,-2.33468 0.58303,-2.53532 -0.63185,-0.2284 -1.55854,2.73866 -1.56192,2.74589 -2.18917,4.70624 -3.27149,7.46844 -4.60374,12.07032 -0.2012,-0.52696 -0.76839,-1.42603 -0.95651,-2.54261 1.1157,-3.96511 3.03372,-8.21398 4.74902,-11.98243 0.59012,-1.07789 0.89942,-2.47346 1.54299,-3.56269 1.4606,1.58153 3.47486,2.61363 5.254,3.81666 z m 2.4606,1.66262 c -3.26651,5.26338 -6.04245,10.22809 -6.76388,14.99645 -0.5049,1.18773 -1.50064,1.52644 -1.71665,1.4204 -0.0956,-0.14246 -0.0962,-0.907 -0.019,-1.56378 1.20188,-5.16639 3.64092,-10.04885 5.73474,-14.09714 1.49252,-1.8051 1.01403,-1.86338 2.76477,-0.75593 z m 3.53711,2.5201 c -0.13217,0.6103 -0.26704,1.30561 -0.40368,1.96037 -1.21811,4.87626 -2.04527,9.10444 -1.76031,13.23191 -0.005,0.51736 0.0261,1.0122 0.0468,1.51371 -0.81138,-0.29878 -0.87424,-1.06139 -1.04908,-1.70673 -0.10941,-1.16205 -0.22691,-2.37849 -0.29743,-3.70071 -0.21456,-4.02287 0.90688,-5.83598 1.82661,-8.21357 0.2062,-0.50589 0.66505,-1.68019 0.12114,-2.1035 -0.30088,0.0127 -0.69819,2.07637 -0.80322,2.35972 -1.83988,4.71683 -1.8309,5.51957 -2.28902,7.97518 -0.32307,1.73173 -0.97191,3.0404 -1.67796,4.65335 -1.78276,-0.0837 0.005,-6.16407 0.76083,-8.78352 0.8646,-2.45086 1.75018,-4.95961 2.59978,-7.29925 1.35914,-0.76977 1.98361,-0.33439 2.92574,0.11309 z m 18.31453,0.0296 c 1.58839,4.80729 3.00996,11.52006 6.16225,15.85192 0.24262,0.41082 -0.70889,0.79642 -1.11651,0.31974 -1.71595,-1.8744 -2.9799,-4.32239 -4.38109,-7.41409 -0.28949,-0.63871 -1.49187,-4.03322 -2.2353,-6.01097 -0.33567,-0.89295 0.73596,-2.065 1.57065,-2.7466 z m -46.85327,0.12665 c 0.35246,0.61844 -0.22296,0.25166 -0.17333,0.28031 -0.0669,-0.005 -1.32875,0.11634 -1.40437,0.1309 0.0217,-0.0323 0.26877,-1.31482 0.82318,-1.74806 0.22708,0.39586 0.63249,0.83551 0.75452,1.33689 z m 43.15952,1.52857 c 0.14009,1.27957 0.2763,1.93863 0.45017,3.09372 0.0834,0.95405 0.1738,2.4234 0.28307,3.38023 0.43001,3.76583 2.24792,6.83228 3.95493,9.46501 -0.0546,0.22391 -1.4759,0.75153 -1.50528,0.74941 -0.48563,-0.0411 -0.43132,-0.0557 -0.85831,-0.81479 -0.0382,-0.0668 -0.68242,-1.58298 -0.94173,-2.20684 -1.69541,-4.07902 -2.43886,-6.43236 -3.08933,-12.49875 -0.0204,-0.19071 0.26451,-0.50001 0.11917,-0.62446 l -0.11535,-0.0965 c -0.0839,-2.44072 -0.13938,-2.01296 1.70264,-0.44696 z m -18.74557,-0.98984 c -0.83804,2.03902 -1.60954,4.03234 -2.19423,5.95283 -0.83343,2.76278 -1.76402,5.69277 -1.85093,8.21652 -0.21989,-0.0607 -0.42801,-0.12538 -0.55747,-0.21506 -0.37721,-0.26132 -0.59399,-0.55806 -0.61514,-1.31519 0.27538,-0.0869 0.16562,-0.85987 0.20557,-1.14688 0.71027,-5.0678 2.57903,-8.35273 5.0122,-11.49222 z m 4.6715,0.0328 1.83699,1.07017 c 0.0346,0.70094 0.12906,1.4379 0.055,2.2168 -0.30058,3.15969 -0.28261,6.12237 -0.055,8.95269 0.16832,2.09282 1.09271,5.6555 1.88609,7.66214 -1.34624,-0.41444 -2.27975,-2.37816 -2.44424,-3.05883 -0.14932,-0.61805 -0.26089,-0.73631 -0.86036,-1.42887 -0.52553,0.71507 -0.632,3.03815 -1.30021,2.96866 -0.4873,-0.0508 -0.38032,-1.3831 -0.44578,-1.6624 -0.17157,-0.73195 -0.25215,-3.77824 -0.25679,-4.1838 -0.0625,-5.48237 0.56354,-7.69798 1.5843,-12.53656 z m 12.0004,2.39335 c -0.0291,2.09025 -0.0617,4.084 -0.35715,6.42848 -0.0322,0.25509 -0.4444,3.18135 -0.43865,3.43754 -1.42823,-1.57195 -1.82724,-6.25172 -2.08519,-8.65752 2.08158,-1.4527 1.13131,-2.66885 2.88099,-1.2085 z m -5.15434,-0.36637 1.33193,1.13322 c -0.0229,2.22722 -0.10277,4.64783 -0.074,7.06123 0.0127,1.09666 0.61695,4.91861 0.69486,5.98315 -1.31795,-1.19553 -2.21919,-7.09105 -2.43814,-9.7109 -0.12864,-1.53875 0.51332,-3.12487 0.48542,-4.46675 z m 12.00974,-0.72198 c 2.48698,4.73489 5.42948,9.00783 8.89436,11.92454 -0.32947,0.21687 -0.69096,0.50677 -0.96118,0.57901 -0.47091,0.12595 -0.84505,0.10654 -1.50218,-0.46321 -0.43437,-0.37341 -1.1085,-0.13868 -1.21929,0.4246 -2.25882,-3.2921 -4.05604,-7.68672 -5.21171,-12.46494 z m -15.38755,1.08868 2.06202,1.40983 c 0.11209,1.02431 -0.11351,1.89563 -0.0731,2.8473 0.0636,1.50423 0.10956,3.74883 0.1282,5.29276 0.0333,2.74878 0.18923,4.58741 0.82639,6.9367 0.0288,-0.0488 0.19693,1.01053 -0.15199,1.39144 -0.13669,0.36521 -0.72315,1.17242 -0.83406,1.4605 -0.0984,0.0902 -0.67024,-0.76192 -0.82341,-1.17277 -0.82756,-2.21978 -1.67046,-7.3391 -1.90408,-9.78462 -0.30977,-3.24305 -0.0497,-5.05817 -0.0242,-7.77628 0.003,-0.36945 0.37206,-0.95991 0.79428,-0.60486 z m 12.38812,0.19329 c 0.542,1.6132 1.09452,3.53952 1.70814,5.1943 0.89937,2.42549 1.90917,4.7701 3.18284,6.7028 -0.42629,-0.25426 -0.97646,-0.029 -1.10397,0.45218 -0.0906,0.34547 -0.1672,0.68337 -0.24166,0.96779 -2.10631,-3.13208 -4.57106,-7.74261 -4.40991,-12.60587 -0.21328,-0.54139 0.45301,-0.62571 0.86456,-0.7112 z m -3.4879,4.08779 c 0.71121,-0.24896 1.53727,7.67086 2.76305,9.88512 1.03534,1.87027 2.8007,2.81439 0.26617,3.03088 -0.68776,0.18777 -1.31112,-1.38751 -1.43074,-1.37889 -3.1102,-2.42777 -1.94014,-8.37346 -1.59848,-11.53711 z m -2.76245,3.72863 c 0.59926,2.82853 2.38373,6.97497 4.06833,9.15474 -0.42208,1.23483 -2.24596,0.74374 -2.54993,0.56971 -1.11591,-0.63888 -2.30913,-8.67104 -2.31735,-9.10049 -0.21577,-2.56827 0.36376,-2.92759 0.79895,-0.62396 z m -2.65833,3.58714 c 0.5993,1.9422 1.35804,3.75488 2.33151,5.51443 -0.0905,0.25132 -0.17756,0.48202 -0.25538,0.68379 -0.20966,0.0524 -0.40702,0.0899 -0.55749,0.0771 -0.0871,-0.008 -0.16518,-0.0243 -0.2444,-0.0414 -0.72668,-1.7016 -1.10686,-3.86502 -1.27424,-6.23408 z"
       style="color:#000000;font-style:normal;font-variant:normal;font-weight:normal;font-stretch:normal;font-size:medium;line-height:normal;font-family:sans-serif;text-indent:0;text-align:start;text-decoration:none;text-decoration-line:none;text-decoration-style:solid;text-decoration-color:#000000;letter-spacing:normal;word-spacing:normal;text-transform:none;direction:ltr;block-progression:tb;writing-mode:lr-tb;baseline-shift:baseline;text-anchor:start;white-space:normal;clip-rule:nonzero;display:inline;overflow:visible;visibility:visible;opacity:1;isolation:auto;mix-blend-mode:normal;color-interpolation:sRGB;color-interpolation-filters:linearRGB;solid-color:#000000;solid-opacity:1;fill:#000000;fill-opacity:1;fill-rule:evenodd;stroke:none;stroke-width:1.0629921;stroke-linecap:butt;stroke-linejoin:round;stroke-miterlimit:4;stroke-dasharray:none;stroke-dashoffset:0;stroke-opacity:1;color-rendering:auto;image-rendering:auto;shape-rendering:auto;text-rendering:auto;enable-background:accumulate" />
    <g
       style="fill:#ffffff"
       transform="matrix(1.4060557,0,0,1.4116956,-35.038194,-105.80947)"
       id="g4333">
      <path
         style="fill:#ffffff;fill-rule:evenodd;stroke:#000000;stroke-width:1.77756667;stroke-linecap:butt;stroke-linejoin:miter;stroke-miterlimit:4;stroke-dasharray:none;stroke-opacity:1"
         d="m 114.98468,183.48331 c 1.80535,-1.63275 3.83832,-1.55885 7.58929,-1.875 3.09437,-0.26081 3.78627,0.0208 5.51325,1.23147 8.37921,5.87391 29.57532,20.61395 31.54031,22.16138 1.46355,1.35488 2.33462,3.85354 -0.71428,5.26786 -4.05919,1.88297 -6.24003,2.69836 -7.32143,2.41071 l -35.89285,-25.26785 c -1.34213,-0.89551 -1.62287,-2.50154 -0.71429,-3.92857 z"
         id="path4151" />
      <path
         style="fill:#ffffff;fill-rule:evenodd;stroke:#000000;stroke-width:1.77756667;stroke-linecap:butt;stroke-linejoin:miter;stroke-miterlimit:4;stroke-dasharray:none;stroke-opacity:1"
         d="m 116.14539,187.67974 34.46429,24.28571 c 3.60433,2.75667 5.36979,-2.05865 2.67857,-3.57143 l -34.46428,-24.46429 c -3.26311,-2.43513 -6.33894,1.03024 -2.67858,3.75001 z"
         id="path4147" />
      <path
         style="fill:#ffffff;fill-rule:evenodd;stroke:#000000;stroke-width:1.77756667;stroke-linecap:butt;stroke-linejoin:miter;stroke-miterlimit:4;stroke-dasharray:none;stroke-opacity:1"
         d="m 137.38008,192.19632 50,-70.71429 c 1.94101,-1.96517 4.53351,0.6386 3.03572,2.67857 l -50,70.17858 c -0.97672,1.12545 -4.09985,-0.9268 -3.03572,-2.14286 z"
         id="path4149" />
    </g>
  </g>
</svg>
